<svg id="Layer_1" data-name="Layer 1" xmlns="http://www.w3.org/2000/svg" viewBox="0 0 791.1 355.33"><defs><style>.cls-1{fill:#ffffff;}</style></defs><title>logo_vgn</title><path class="cls-1" d="M795.15,79.49a8,8,0,0,0-6-4.75,20.67,20.67,0,0,0-9.47,0,19.15,19.15,0,0,0-9,4.75q-3,2.92-12,15.73t-21.93,30.36q-13,17.56-27.91,37.3T681,199.08q-13,16.46-22.42,26.7t-12.46,8.78q-5-2.2,1-18.28t16.45-39.13Q674,154.09,685,127.4a328.39,328.39,0,0,0,16.44-50.47q5.46-23.77,3-41.33T685,13.66a74.38,74.38,0,0,0-35.88,0,121,121,0,0,0-35.88,15.73,233.81,233.81,0,0,0-35.38,27.79,291.63,291.63,0,0,0-32.4,36.21c.31-.82.57-1.63.88-2.45,1-1.64,2.12-3.22,3.1-4.87,2-3.37,2.47-6,1.52-8,1.31-3.68,2.72-7.36,4-11q4.49-13.16,9.47-25.6-1-4.39-5.48-10.6a76.87,76.87,0,0,0-10.47-11.7A67.84,67.84,0,0,0,536,10q-6.49-3.65-10.46-3.66-5,8.06-11,26.7T502.12,75.47q-6.47,23.77-12.46,50.47c-.42,1.85-.76,3.61-1.17,5.45q-6.54,7.36-13.29,14.3-27.43,28.18-54.32,51.57,6-22.66,12-45t12-42.42q6-20.11,11-36.95t9-27.79q-1-4.39-5.48-10.61a78.63,78.63,0,0,0-10-11.33,72.37,72.37,0,0,0-11.46-8.78c-4-2.43-7.32-3.41-10-2.93q-2,3.66-4,11.7t-5,19a62.56,62.56,0,0,0-17.94-19.39A59.6,59.6,0,0,0,375,12.92q-27.91-4.39-52.32,11t-41.86,41a196.83,196.83,0,0,0-19.94,38c-7.8,9.75-15.76,17.85-23.91,23.83q-20.44,15-37.37,18.65a168.29,168.29,0,0,0,12-61.45q3-48.28-10.46-62.54t-37.37-9.87q-25.93,5.12-39.37,26.7A98.11,98.11,0,0,0,109.42,85a102.67,102.67,0,0,0,9,48.64q10.46,23.42,33.39,32.92-12,28.52-29.4,48.28T85,232.36q-16-2.18-23.92-13.16T50.61,191.4a137.13,137.13,0,0,1,0-36.94A241.48,241.48,0,0,1,74,76.93Q83,59,93,47.3,93,42.18,88,36a86.78,86.78,0,0,0-11.46-11.7,111.61,111.61,0,0,0-13-9.51q-6.5-4-10.47-4.75A174.41,174.41,0,0,0,25.2,55.35a270.86,270.86,0,0,0-16.44,52.3,205.47,205.47,0,0,0-4,53q1.5,26.33,9.47,47.54t23.42,35.11Q53.1,257.24,76,259.43a78.15,78.15,0,0,0,34.38-4.75A103,103,0,0,0,141.31,236a178.87,178.87,0,0,0,26.91-29.26,212.49,212.49,0,0,0,21.43-35.84h1q25.9-2.92,54.82-22.31c1.06-.71,2.1-1.52,3.14-2.27a158.45,158.45,0,0,0-2.15,37q2,28.52,16.44,49.74t44.35,25.6q20.94,2.91,41.86-6.58c-5.33,3.91-10.64,7.79-15.95,11.7s-10.64,7.55-15.95,11q-28.92,20.47-36.88,38t-2,29.26q6,11.7,21.43,16.82t33.89.73q18.43-4.39,34.88-19.75T393,296q4-12.45,8-28.16t9-32.55q35.07-28.45,70.15-62.64c-.28,1.47-.6,3-.87,4.49q-4.49,24.51-7,44.62t-1.5,30.36q2,3.66,14.45,6.58t20.43-.73q8-35.83,27.41-72.78a505.69,505.69,0,0,1,40.87-65.83q21.42-28.89,41.86-46.08T647.13,59q8,2.18,4.49,16.82t-12,35.84q-8.48,21.22-18.44,46.45a319.25,319.25,0,0,0-14.95,47.55q-5,22.32-2,39.5t20.93,23q8,2.92,21.43-5.85T676,237.49Q692,221.4,708.93,200.55t32.39-41.7q15.45-20.84,28.91-39.5l22.42-31.09C795.3,84.86,796.14,81.93,795.15,79.49Zm-624.93,11q-1.49,13.16-3.49,26a155.46,155.46,0,0,1-5,22.31q-12-7.3-16.95-21.58a66.08,66.08,0,0,1-3.49-28.89,75.25,75.25,0,0,1,8.47-27.8q7-13.16,19.94-18.28a110.38,110.38,0,0,1,2,22.31A229.94,229.94,0,0,1,170.22,90.46ZM363.57,285.4q-2.5,8.4-4.48,14.26-6,19-17.94,26T321.71,330q-7.47-2.57-6.48-12.8t20.93-25.6q7-5.12,14.95-11t16.94-13.17Q366,277,363.57,285.4ZM395,106.55a223.1,223.1,0,0,1-7,44.63,179.85,179.85,0,0,1-16.44,42.42q-10.46,19-24.42,30.36t-29.9,7.67q-14-2.91-18.44-17.91t-3-35.84a180.42,180.42,0,0,1,9-43.53,246.18,246.18,0,0,1,17.94-41.69q10.46-19,23.42-30.36T372,53.15q12.94,2.2,18.44,17.19T395,106.55Z" transform="translate(-4.45 -6.34)"/><ellipse class="cls-1" cx="740.77" cy="241.7" rx="24.04" ry="25.66" transform="translate(4.63 503.29) rotate(-38.18)"/></svg>